<svg xmlns="http://www.w3.org/2000/svg" viewBox="0 0 968.49 253.61"><defs><style>.cls-1,.cls-2{fill:none;}.cls-2{stroke:#222;stroke-miterlimit:10;stroke-width:3px;}.cls-3{fill:#222;}</style></defs><title>Asset 10</title><g id="Layer_2" data-name="Layer 2"><g id="Layer_1-2" data-name="Layer 1"><rect class="cls-1" y="25.5" width="968.49" height="192"/><rect class="cls-2" x="18.7" y="42.52" width="931.1" height="157.97"/><path class="cls-3" d="M67.94,128.41l-3.86,11.71H59.5L74.41,95.05H79l14.79,45.07H89.26L85.4,128.41Zm16.29-3.93L76.7,101.07l-7.52,23.41Z"/><path class="cls-3" d="M136.17,131.22V95.05h4.31v45.07h-4.12l-19-36v36H113V95.05h4.19Z"/><path class="cls-3" d="M191.25,103.62a13.15,13.15,0,0,0-9.81-4.84c-8.51,0-15.44,6.67-15.44,18.9,0,11.78,6.08,18.84,14.72,18.84,8.24,0,12.23-5.89,13.21-14.32H182.61v-3.86h15.9c-.26,15.24-7.78,22.43-17.79,22.43-11,0-19-9.48-19-23.09,0-14.52,8.77-23.16,19.76-23.16a16.3,16.3,0,0,1,12.69,5.89Z"/><path class="cls-3" d="M241.16,95.05v4.18H223v16.49h15.9v4.12H223v16.09h18.77v4.19H218.66V95.05Z"/><path class="cls-3" d="M267.2,95.05v40.88h16.23v4.19H262.89V95.05Z"/><path class="cls-3" d="M307,128.41l-3.86,11.71h-4.57l14.91-45.07h4.58l14.78,45.07h-4.51l-3.86-11.71Zm16.29-3.93-7.52-23.41-7.52,23.41Z"/><path class="cls-3" d="M367.16,150.65a15.57,15.57,0,0,0,3.73.59c5.63,0,7.07-4.91,7.07-10.27V95.05h4.32V141c0,7.78-2.62,14.39-11.58,14.39a17.37,17.37,0,0,1-4.06-.65Z"/><path class="cls-3" d="M407.72,134a3.32,3.32,0,0,1,3.34,3.4,3.31,3.31,0,1,1-6.61,0A3.35,3.35,0,0,1,407.72,134Z"/><path class="cls-3" d="M489.69,140.12h-4.32V119.77H465.1v20.35h-4.32V95.05h4.32v20.67h20.27V95.05h4.32Z"/><path class="cls-3" d="M510.82,117.68c0-14.06,8.57-23.16,19.63-23.16s19.62,9.1,19.62,23.16-8.57,23.09-19.62,23.09S510.82,131.81,510.82,117.68Zm34.94,0c0-11.51-6.68-18.9-15.31-18.9s-15.31,7.39-15.31,18.9,6.67,18.84,15.31,18.84S545.76,129.19,545.76,117.68Z"/><path class="cls-3" d="M575.52,95.05v40.88h16.23v4.19H571.21V95.05Z"/><path class="cls-3" d="M611.44,140.12V95.05h14.85c10.92,0,17.4,9.81,17.4,22.63s-6.48,22.44-17.4,22.44Zm14.85-4.19c8.63,0,13.08-7.91,13.08-18.25s-4.45-18.45-13.08-18.45H615.76v36.7Z"/><path class="cls-3" d="M687.45,95.05v4.18H669.27v16.49h15.89v4.12H669.27v16.09H688v4.19H665V95.05Z"/><path class="cls-3" d="M732.33,131.22V95.05h4.32v45.07h-4.12l-19-36v36h-4.32V95.05h4.19Z"/><path class="cls-3" d="M786.61,121.38c0,.17-.17.17-.34.51,0,.17.34-.17.34-.51v-.17a49.51,49.51,0,0,0-6.81,13.46c.34.17.34-.17.51-.34V135c10.22-7,17.2-16.7,25.21-25.39,2.22-.51,3.24,1.2,3.58,2.56.17,0,.17-.17.34-.34.17.17.17-.68-.17-.51,5.62,1.53,1.87,8.34,2,14.31-.17,0-.34-.34-.17-.68a3.41,3.41,0,0,0-.17,2.89V128c-.68,4.26-2,8.52-1,11.76-.17.17-.51,0-.51,0,0,.68-.51,1.36.17,1.7,0,.51-.51,0-.51.51,1.19.51.34,2.73,1.53,3.92-.68.17-1.36-.68-1.19.51a1.54,1.54,0,0,0-1.7,0c-.86-.68-.86-1.53-2.22-1.87-3.41-6.48-1.36-14.82-.85-23.17-7.84,6.64-12.61,17.55-24.19,19.59a23.57,23.57,0,0,1-3.75-1.7c.17-.51-.17-.86-.68-1a8.07,8.07,0,0,0-1.7-4.42c1.53-12.61,10-23.51,18.39-30.67,1.54,0,2.39,0,3.41-.68,2.39,1.53,7.5,2.55,6,6.64-.51-.34-.34.17-.68.17-.68.17-.85-.51-1.53-.51-3.58,1.36-6,5.28-8.52,6.65-.34.51-.68.51-.34,1.19-1.87.51-2.9,3.06-4.43,4.6Zm-9.2,7.15V128h-.34v.51Zm3.24,5.29c-.34-1,.68-2.22.85-3.24C782,131.26,780.65,132.79,780.65,133.82Zm1.36-3.41c-.51-.34.34-1.19.17-1.54C783.2,129.22,782,129.73,782,130.41Zm1.19-2.73c-.51-.17,0-.85.52-.68C783.54,127.34,783.2,127.34,783.2,127.68Zm.69-1.36c-.17-.68.51-.68.34-1.19C784.74,125.3,784.4,126.32,783.89,126.32Zm7.49,1.53a3.71,3.71,0,0,0-1,.17C790.7,128,791.55,128.53,791.38,127.85Zm-1,3.41c0,.51.85.34,1,1C791.55,131.6,791,131.26,790.36,131.26Zm1.19-3.41c.17-.68,1.19-1.36.51-2-.51.51-.17,2.21-.68,1.36C791.21,127.85,791.55,127.68,791.55,127.85Zm0,3.07v-.34h-.17v.34Zm2.22-4.09a4.22,4.22,0,0,1,1.36.17,10.77,10.77,0,0,0-3.58,3.75c.34.17,1.19-.17.85.51a.81.81,0,0,0,.86-.85h-.86c0-.85,1.2-.34,1.2-1,.34,0,.17,1,.68.68.68-.68-.34-.85,0-.85.85-.35,2.89-1.88,1.87-2.39.17-.34.68,0,1.36,0,1-2.38,2.56-3.41,4.09-4.77.17,0,.17-.17.34-.17.86-1.87,4.09-3.92,2.73-7-.17.52-.68.18-1.19,0,0,.52.34.35.34.69-.68,0-.85,1.53-2.05,1.7.34,1-.68,1.87-1.87,1.87-.51.69-.17,1.54-1,2.22-.17,0-.17-.17-.34-.34,0-.34,1.19-.34.51-1a23,23,0,0,0-6.31,5.79c.52,0,.52.85,1,.17.17-.51-.51-.17-.34-.68.68-.34.85,1.19,1.36.34-.51,0,0-.68.34-.51C795.13,126.49,794.28,126.32,793.77,126.83Zm-1.71,5.45v-.68h-.51v.68Zm1.88-5.28c-.34,0-.86,0-.86.51C793.6,127.51,793.94,127.51,793.94,127Zm0-2c.34-.51,1.19-.51,1.7-.51,0-.52-.17-.86,0-1.2.34.17.51.51.68.68-.34.52-.51.52,0,.86-.68-.17-.51.68-1.19.34C795.13,124.1,793.94,125.47,793.94,125Zm1.53,1a5.39,5.39,0,0,1,.85-1C796.66,125.81,796,125.64,795.47,126Zm.85,5.28v.34h-.17v-.34Zm.85-6.81c-.17.17,0,.68-.85.51C796.83,124.79,796.66,124.45,797.17,124.45Zm1.54-1.88a.45.45,0,0,1,.51-.51Q799.22,122.82,798.71,122.57Zm0,1.53v-.34h.34C799.05,123.93,799.05,124.45,798.71,124.1Zm1.19-2.72c0-.17,0-.34.34-.34A.37.37,0,0,1,799.9,121.38Zm1.19-.85c.17-.86.51-1,1.36-1C801.94,119.67,801.77,120.19,801.09,120.53Zm.51,1.36v.17C801.43,122.06,801.26,121.89,801.6,121.89Zm.51-3.24v.51h-.34v-.51Zm.34-.85c.52-.17,1,.85.35.85C802.8,118.14,802.11,118.31,802.45,117.8Zm1.37.85h.68v-.51h-.68Zm5.62-6.81c-.17,0-.17,0-.17-.17C809.44,111.67,809.44,111.67,809.44,111.84Zm1.7,17.38c-.51,0-.17-.69-.17-1.2C811.31,127.51,811.14,129,811.14,129.22Zm.17-2.56c-.17-.17-.17,0-.17.17V126C811.31,126,811.31,126.32,811.31,126.66Z"/><path class="cls-3" d="M842.49,128.36c.68.51,1.87-1.87,2.38-.85a8.67,8.67,0,0,1,.86-1.36,3.46,3.46,0,0,0,1.53-1c-.51-.51-1.36.51-1.53,1,.17-3.07,6-3.75,7.66-6.65.68,0-.17.35.34.69.51-.17.85-.69.85-1.54-.17-.51-.51.17-.85,0,.34-.68,1-1,2.22-1,0,.68-.85.34-.85,1,.68.17,1.7-1,2.38-1.53-.34-.68-.85.17-.85.34a25.08,25.08,0,0,1,8.52-6.47c0-.34-.51-.17-.86-.17.18-.86,1.37-.35,2.05-.51a8,8,0,0,1,4.6-2.9c-.85,6.3-7.16,10.22-11.41,14.14C851,129.73,840.61,136,831.07,143a62.09,62.09,0,0,1-.68,14,1.26,1.26,0,0,0,.85.35c-1,1.19-1.53,3.91-.17,4.25-.17.69-1.19.35-1.19.86s.85.51,1.19.85c-1.53.17-.68,1.36-1.19,2.38.68.34.34-.51,1-.34-2.38,4.26-1,9.54-3.06,12.44,1.53,1.87-.68,2.55-1,4.09.51,0,.51-.51.51-1,1,1.19-.51,2,0,3.23-.35,0-.51.34-.86.34.17.34.69.34.51,1-.68,0-.51-.52-.85-.52,0,.34-.34.34-.17.86,0,.34.51.17.86.17a14.18,14.18,0,0,0-.69,3.57c-1,0-.34-.85-.68-.85-.68,0-.17,1-.68,1.2.68.17.85-.35,1.19,0-.51,2-1.7,4.77-2.21,7.15-.34,0-.51,0-.51-.34-.68-.17-.17.85-.51,1-.17-.51-.34-.51-.69-.34,0,.34.35.17.69.34-.52,2.05-1.54,3.58-1.54,5.45.68-.17.34-1.36.85-1.7.52.34.35,2-.34,1.87-.34.86.34.69.34,1.2h-.85a2.34,2.34,0,0,1-.17,1.87c-1.87,0-1.7,1.87-2,2.9,1-.17.17-2,1.7-2-.34.68-.51,2.9-1.87,2.39-.68.68-.68,1.87-1.71,2,.51,1-1.19,1.36-.34,2.73.68,0,.68-.85,1.2-1.2a4.86,4.86,0,0,1-2.05,4.09c.17-.85,1-2,.85-2.72-.68.68-1.36,1.19-1.19,2-1.19,0-.85.51-1,1.54.68.17.17-1,1-.86,0,.52-.51.52-.51,1.2.51,0,.68-.34.85-.68.51.68-.51,1.36-.34,2-1,.17-.68-.51-1.53-.17-.17.68.68.34,1,.51-.68.85-1.7.68-2.9.34.51.68,1.2,1.7,2.05,1.19-.34,1-.51,2.22-2.05,2.22,1,1.19-.51,1.53-.51,2.89-.68-1-1.36.86-1.87-.17-.34,1-1.36,1.54-1.71,2.73,1-.34.86-1.53,2-1.53-.34.85-1.19,1.19-1.53,2,.51.51.34-.51,1-.51.17,1-1,.85-1.54,1.36.69.68.17.85-.17,1.71-1.19-.17-1.87-.34-2.38.51-.17.68.68.51,1,.68-.85.17-1,1-1.87,1.19,0-.34.34-.34.34-.68-1,.34-.68,2-.51,2.39a23.37,23.37,0,0,0-1.88,1.53c-.51-.51.51-1.19.68-1.88-1.19.17-1,1.54-1.7,1.88.51.17.51.68,1.19.68-.17.68-.85.85-1.87.85,1.36,1-1.19,2.56-3.07,2,0,.68,1.37,0,1.37.68-3.07,1.87-4.43,6.3-8.86,5.62q0,1,1,.51c-.68,1.36-2.9,1.19-3.92,2,0,.35.17.35.51.52a9.79,9.79,0,0,1-2.55.17c0,.34.17.51.17.85a7.59,7.59,0,0,0-4.43,1.36c-.34,0-.51,0-.34-.34-15.34,3.41-24.54-9.88-26.58-23.34,0-.34.51-.51.68-.85-.51-.34-.68-.68-.17-1.19,0-.34-.68-.17-.85-.34,1.87-20.62,11.41-37.31,23.34-51.11-.68,2-2.9,3.4-3.07,5.45-.17,0-.51,0-.34-.34-1.36,2.21-3.41,3.4-4.26,6.13.17.51.34-.68.68,0-.34.68-2,.17-1.7,1.7.51.17.34-.85.68-1,.68.34-.68,1.19,0,1.53-1.19-.17-1.53.69-2.38,1.54.34.68.51-.34,1-.17.17.68-.68.51-.68,1.19-1.37-.51-2.22,2.56-2.73,3.92.17.34.51.51.51,1-1.36-.17-.34,1.87-1.53,1.7-.85,3.92-3.75,9.37-5.45,14.49a1.33,1.33,0,0,0,.68.68c1.19-.68,0-2.39,1.36-2.73,0-.51-.68-.34-.51-1a2.16,2.16,0,0,0,1-.17c-.51-1,1.2-1.88.17-2.73.34-.17.51-.68,1.2-.51,2.21-7.32,5.62-13,9.37-18.4.17-.51-.86,0-.51-.68.34-.51.68.17,1-.17a61.25,61.25,0,0,1,7.66-10.22c.17-.51-.34-.51-.51-.68.17-.51.68.17,1,0,2.22-3.75,6.14-6,8.35-10.05a20.64,20.64,0,0,0,7.16-6.65c.17,0,.17.17.17.34,4.6-3.75,9.54-7.15,14-11.24,3.24-.68,4.43-3.58,7.49-4.43v-1c.86.51,3.92-.86,3.58-2.22.68.34.85-.17,1.71,0,.17-.85-.35-1,0-1.7.51.51.68.17,1,.34-.17-11.93,1.87-21.81.85-33.73,4.94-3.75,11.41,2.72,8.18,7a24.45,24.45,0,0,1-.34,10c0,.17.34.17.51.17a87.51,87.51,0,0,0-1,11.25c.69,0,.86-.51,1-1,.51.17.51.68.85.85-.34-1.2,2.21-2,2.55-3.07h1c-.51,1.36-2.39,1.36-2.9,2.39,1.7-.35,2.56-1.71,4.09-2.39,0-.34-.68-.17-.85-.34.34-1,1.7.17,2.21-.68-.85-.85.85-1,1-1.88.52.17.52.86,1,.52.34-.86-.86-.18-.51-.86,1,0,1-1.19,2.21-1C843.34,128,842.49,127.68,842.49,128.36Zm-86.89,101c-.51-.17-.68.17-.68.68C755.43,230.24,755.43,229.73,755.6,229.39Zm1.71-13.12c-.34,3.92-2.39,7.5-1.88,11.25C756.11,223.43,758.16,220,757.31,216.27Zm-.52,15.16c-.51-.17-.68,0-.85.34C756.28,232.12,757,231.94,756.79,231.43Zm1.88-16.69c-.34,0-.34-.51-.85-.34-.34.51-.51,1.19.51,1.19C758.33,215.25,758.5,215.08,758.67,214.74Zm1.36,6c.34.34,1,.17.85-.34h.17c.52-.51-.17-1.19-.68-1.19-.17.51.34.68.51,1.19A1.3,1.3,0,0,0,760,220.7Zm.68-8.35c-.17.51.86.51.69,0C761.22,212.18,760.71,212,760.71,212.35Zm.86,6.82c0-.85-.86-1.2-.86-.34A1.33,1.33,0,0,1,761.57,219.17Zm.17-2.39h-.86c0,.51.34.68.69.85A3.46,3.46,0,0,0,761.74,216.78Zm19.42-34.24c-2.22,4.94-6.65,9.54-9.54,14.48-.68,1.7-1.37,4.43-2.9,4.43-.17.68.51.68.51,1a60.6,60.6,0,0,0-3.75,8.52c-.68-.68-1.19-.17-1.87-.68-.17.51.34.51.17,1,.34,0,1-.51,1.19,0a8.31,8.31,0,0,1-2.21,5.11,1.27,1.27,0,0,1,.85.17c-1.53,2.22-.68,4.94-2.21,7.16.51,1.36-.18,3.58-.35,5.28a17.49,17.49,0,0,0,.69,1.7c-.69,6.48.85,16.36,9.54,15.68,2.55-.69,5.11-.34,7.15-1.54,3.07,0,5.28-2.55,7.84-3.75,0,.35-.85.86,0,.86.68-.69,1.19-1.71,2.38-1.88-.34-1,1.54-1.19,2.39-1.87-.51,0-.17-1,.34-.68-.17.17-.51.68.17.51-.17-1,.51-1.71,1-1-.17-1.2.85-1.2,1.19-1.88-.17,0-.34-.17-.34-.51,8-6.81,13.29-17.38,18.23-26.24,0,.35-.68.86,0,1,.34-1.2,1.71-2.56,1.37-3.92-.69.68-.52,2-1.37,2.55,0-1.87,1.54-3.06,1.37-4.6.34,0,.85.17.85-.17-.34,0-.51-.34-.34-.85,2.38-1,1.7-3.41,1.7-5.28,1.19-.17.17-1.36,1.53-1.19-.34-3.75,2.56-7,2-10.39,3.4-12.27,4.6-23,5.11-37.31-.51-.17-.17-1.2-.85-1.2a182.79,182.79,0,0,0-37.65,30.67C784.22,179.64,783.2,181.52,781.16,182.54Zm-19.59,29c-.17.51,0,.85.34.85C762.25,212.18,762.08,211.5,761.57,211.5Zm.51,4.77c0-.34,0-.68-.34-.68,0,.34-.17.51-.17.68Zm-.34-3.24c0,.69.85.52,1,.17A1,1,0,0,0,761.74,213Zm.85-4.94c0-.34-.17-.51-.51-.68,0,.17-.17.34-.17.51C762.25,207.92,762.25,208.09,762.59,208.09Zm-.68,3.07h.51c0-.17,0-.34.17-.17v-.51h-.51c0,.17,0,.34-.17.17Zm.68,4.09c0-.34-.17-.51-.51-.68,0,.17-.17.34-.17.51C762.25,215.08,762.25,215.25,762.59,215.25Zm-.17,2.38c-.17.34-.51.52-.51,1C762.42,218.83,762.76,217.81,762.42,217.63Zm0-8.68c-.17.34.17.34.34.51.51,0,.68-.51,1-.86-.51-.17-.51.52-.85.52C762.76,209.12,762.59,208.78,762.42,209Zm1.36,2.55c-.68,0-1.53.68-1,1.19C763.44,212.69,763.78,212.18,763.78,211.5Zm-.85-5.45c0,.17-.34.34-.17.85C763.44,206.9,763.61,206.05,762.93,206.05Zm.85,3.41c-.17.51.85.51.68,0C764.29,209.29,763.78,209.29,763.78,209.46Zm.68-4.43c0,.34-.17.68.17.85C764.8,205.71,765.14,204.86,764.46,205Zm.51-7v.34h-.34V198Zm.51,5.8h-.68v.51C765.31,204.52,765.14,204,765.48,203.84Zm-.34-8a2,2,0,0,1,1.37-2.05C766,194.46,765.65,195.15,765.14,195.83Zm.68,6.47c0,.51-1,1-.17,1.19C765.65,203.15,766.34,202.64,765.82,202.3Zm0-2.55h.34c.35-.34.35-.51-.17-.69,0,.18,0,.18-.17.18Zm1,2.21c-.17-.85.34-.85.34-1.53h-.51c.17,1-.69.51-.69,1.36C766.34,201.79,766.34,202,766.85,202Zm1.7-4.09c-.34,0-.34-.34-.68-.17,0,.85-1,1-.85,2.22C768,199.75,767.87,198.38,768.55,197.87Zm-.51-1.19c-.51-.17-.85,0-.85.51A1.06,1.06,0,0,0,768,196.68Zm.51-.85c.17-.51-.85-.68-.68-.17.17,0,.17,0,.17.17ZM772.3,190c-1.19,2.21-2.56,4.6-4.09,7.32,2.21-1.87,3.07-5.11,4.94-7.32.17.85,1.53,0,1.53-.86-1-.17-.85.69-1.36.86.17-.86-1-.35-1.19-1,.17-.51.85-.51.85-1.19-1,0-1.19.85-1.36,1.7C771.79,189.69,772.3,189.69,772.3,190ZM768.89,195c0-.52-.17-.69-.68-.69V195Zm1-3.24c0,.17-.85.68-.17,1C769.74,192.25,770.77,191.91,769.91,191.74Zm1.2,4.09c-.52,0-.86.34-1,1C770.94,196.85,770.94,196.34,771.11,195.83Zm-.86-4.26c.52.17.69-.85.34-.68-.17.17-.17.17-.34.17Zm.34-4.77c-.68-.51.52-.68.35-1.19C772.13,185.78,770.59,186.46,770.59,186.8Zm1,3.41c-.34,0-.85,0-.68.51C771.28,190.72,771.45,190.55,771.62,190.21Zm0,5.11c0-.34-.34-.34-.68-.34v.34ZM774,250.17c0-.51-.17-.68-.68-.68,0-.51.85-.17.68-.68-.85.34-3.06-.34-3.06,1,.85-.51,1.53,0,2.38-.34C773.66,249.66,773.49,250.34,774,250.17Zm-2.21-56c.68,0,1.36-1.36,1-1.87-.51.34-.17,1.36-1.19,1C771.45,193.78,771.79,193.78,771.79,194.12Zm.51-10.05v.51H772v-.51Zm.68,3.41h.34c.34-.34.34-.51-.17-.68,0,.17,0,.17-.17.17Zm1.36.17a.9.9,0,0,0-1,1.36C774,188.84,774.17,188.16,774.34,187.65Zm-.34-4.09c-.34-.17-.51-.34-.34-.68A.88.88,0,0,1,774,183.56Zm.85,3.92c.34-.85.68-.68.51-2-.68.17,0-1-.68-.69-.85.86.34,1.37-.51,2.22C774.51,187,774.51,187.31,774.85,187.48Zm1,61c.34.51.34.68,0,1,1.7-1.19,3.57-1.19,5.45-2.55-.34-.17-1.19.17-1.19-.17.17-.68.68-.34,1.19-.34.17-.34-.51-.69,0-.69a1.8,1.8,0,0,0,2.21-1.53c-.68.51-.68,0-1.19-.34-2.21,1.7-6,3.41-8.18,5.28C775,249.83,775,248.47,775.88,248.47ZM775,181.52a.62.62,0,0,0-.17.51c-.51,0-.51-.34-.17-.51Zm.69,2.89c0-.17.17-.17.17-.34-.17,0-.35-.17-.17-.34.17,0,.34,0,.34-.34-.69-.17-.69.51-.86,1Zm.51,3.24c-.17,0-.34-.34-.51-.17-.52.34.17.51-.35,1C775.88,188.33,776.22,188.16,776.22,187.65Zm-.17-3.07c-.34.17-.34.68.34.51C776.39,184.75,776.22,184.58,776.05,184.58Zm.85-.68h.34c0-.34-.17-.51-.34-.51v.51C775.71,184.24,777.58,184.92,776.9,183.9Zm.17-2.89c.17.68-.51.51-.34,1C777.24,182.2,777.92,181,777.07,181Zm.17-5.12c1-1.19,1.53-2.72,3.07-3.23C779.28,173.85,778.6,175.21,777.24,175.89Zm.68,4.43a.59.59,0,0,0,.17,1C778.43,181,778.43,180.32,777.92,180.32Zm.34,1c0,.17-.17.34-.17.51.51.34,1.19,0,.68.85.51,0,.85-.51.68-1.19-.17,0-.51,0-.51-.17.85-.34.51-1.71,1.54-1.71.34.17,1.36.85,1.53,0-.34-.17-.85-.17-1-.34-.34-1,2.55-1.87,1-2.72-.51,2-3.24,2.72-3.07,4.77Zm1.53-2.39c-.34,0-.51-.17-.85-.17-.17.34-.34.51-.51.85C779.11,179.64,779.28,179.3,779.79,179Zm.17,71.38c-.85-.51.86-.34.52-1-.69,0-1,.51-1.37.85C779.45,250.17,779.79,251,780,250.34Zm1.88-73.93c-1,.51-2.05,1-2.39,2.21A6,6,0,0,0,781.84,176.41Zm-1.53,4.94v-.51H780v.51Zm.85-9.88c-.17.68-.34,1-.85,1.19C780,172,780.48,171.64,781.16,171.47Zm-.17,9.88v-.51h-.51v.51Zm.85,68.14V249h-.68a.62.62,0,0,0,.17.51Zm-.34-78c1.87-2.9,3.92-5.8,7.49-7.16C785.93,166.18,784.22,169.25,781.5,171.47Zm.51,4.42c0-.17.17-.17.17-.34a.59.59,0,0,1-.34-.17c0,.17-.17.17-.34.34C781.84,175.72,781.84,175.89,782,175.89Zm0,71.56v-.34h-.51v.34Zm.51.85c-.17.34-.51.51-.34,1.19C782.69,249.66,783,248.47,782.52,248.3Zm2-75.64a5.11,5.11,0,0,0-2.21,2.72c.68.51.68-1,1.53-.85.17.68-1,.85-.34,1.19,1.19-.85,2.39-2.72,3.58-2.38,0-.34-.34-1,.17-1,.51-.17-.17.85.68.51-.34-1.19.85-.85,1-1.71-.34,0-.68,0-.68-.34.34,0,.17-.68.68-.51.17.34.34.68.69.34a1.25,1.25,0,0,1,0-1.53c-.69-.17-.52.51-1,.68-.51-.51-.85-.17-1.7-.17,0,1.53-1.36,1.71-2.05,2.56-.17.68.86.34,1,1-1.2,0-1,1.19-2,1.36C783.37,173.34,785.42,173.51,784.56,172.66Zm.52,73.08c0-.68-.69-.85-1.2-.85,0,.85-.85.68-1,1.2C783.54,246.6,783.88,245.4,785.08,245.74Zm-1.2,3.41c0-.34-.34-.51-.68-.34v.34Zm.34-6.13a.8.8,0,0,0-.85.85A.8.8,0,0,0,784.22,243Zm1-67.3c-1-.85-1.37.35-1.71,1.2A3.91,3.91,0,0,0,785.25,175.72Zm-1.37,72.41c.34,0,0,.85.68.68C784.73,248.3,784.05,247.45,783.88,248.13Zm1.71-5.11c-.69,0-1.2.34-1,1.19C785.25,244.21,785.42,243.53,785.59,243Zm.68,4.43c-.68,0-1,.17-1.19.68C785.42,248.47,786.1,248.13,786.27,247.45Zm1.19-4.26a3.09,3.09,0,0,0-2.21,1.87C786.1,244.55,787.12,244.21,787.46,243.19Zm-.85-69c0-.51-.85-.17-1,0C785.25,174.7,787,174.7,786.61,174.19Zm-.17-1.53c-.68.17-.34-.68-.51-1,.34,0,.51-.34,1-.34C787,171.81,786.27,171.81,786.44,172.66Zm-.34,70c0,.17,0,.68.34.51C786.44,242.85,786.27,242.68,786.1,242.68Zm1,4.77c-.17-1,1-.85,1-1.71-.85.35-1.87.52-2,1.37C786.78,246.77,786.44,247.62,787.12,247.45Zm0-76.67c0-.68.51-.68,1.19-.68C788.31,170.78,787.63,171.3,787.12,170.78Zm1.19,70.53c-.34,0-.68,0-.68.52C788,241.83,788.14,241.66,788.31,241.31Zm.68.86a1.74,1.74,0,0,0-1,.85C788.48,243,788.82,242.85,789,242.17Zm5.63-78.71c-.17.85-.86,1.19-1.37,1.7-.51-.34.51-.85-.51-.85-.51.51.51.68.34,1.36-1.36.17-1.36,1.54-2.55,1.71,0-.34.34-.34.51-.68a11.44,11.44,0,0,0-2.73,2c.68.51.85-1,2.05-.68-.51.34-.51.68.17,1,0,.51-.68.34-.51,1a4.69,4.69,0,0,0,2.55-2.55c-1.53-2.22,3.58-.68,2.22-3.24a8.91,8.91,0,0,0,1.87-1.7c.51-.17-.17,1,.51.85.17-.51.34-1,1.19-.85.17-.68-.68-.17-.51-.68.34,0,.34-.18.51-.35a2.57,2.57,0,0,0,1.37.52c0-1.2-.51-1.37,0-2.56-1.37,0-1.54,2.39-2.9,1.7a22.22,22.22,0,0,0,2-1.87c-2.55.85-3.74,3.07-5.62,4.6C793.59,164.48,794.28,163,794.62,163.46Zm-4.43,81.77c0-.51-.34-.51-.17-1.19.68.17,1.19.34,1.36-.68-2-.34-2,1.53-3.07,2.38C789,245.57,789.16,245.06,790.19,245.23Zm-.17-81.6c-.86-.51-1,.51-1.54,0A1.28,1.28,0,0,1,790,163Zm-.34,77v-.51h-.35v.51Zm1-77.68c-.51,0-.34-.51-.68-.51C790,161.93,791,162.44,790.7,163Zm0,2.72v.68c.51,0,.68-.17.68-.68.51.17,1.19-.51.68-.68,0,.51-.85,0-.68.68Zm0,3.07c0-.85,1-.68,1-1.36C792.23,167.72,791.38,168.74,790.7,168.74Zm1,74.62c.68-.17.17-1.53,1.36-1.19-.51-1.54-1.19.51-1.87.51C791,243.19,791.55,243.19,791.72,243.36Zm-.17,2.9v-.35h-.34v.35Zm.51,1c-.34,0-.85,0-.85.17l.51.51A.88.88,0,0,1,792.06,247.28Zm-.34-86c0-.68.17-.85.85-.85C792.23,160.73,792.4,161.24,791.72,161.24Zm5.79-4.26c-1.7.86-2.72,2.39-4.77,3.07a23.13,23.13,0,0,1,4.94-4.09C797.85,156.47,797.34,156.3,797.51,157Zm-3.4,86.72c-.69,0-1.2.17-1.37,1A2.16,2.16,0,0,0,794.11,243.7Zm-.69,2.56v-.35h-.34v.35Zm.69-4.43c0-.34.17-.34.17-.69-.35,0-.86,0-.86.17.17.18.17.18.17.52Zm.17-5.63c0-.34-.17-.34-.69-.34v.34Zm1,4.09c.17-.34.51-.51.51-1.19-1,.17-1.53.85-2.22,1.19C794.11,240.8,794.45,240.12,795.3,240.29Zm-.68-75.3c0,.17-.34.17-.34.51-.17,0-.17,0-.17-.17V165Zm.51,80.92c0-.68-.51-.51-.51-.85a.62.62,0,0,0,.51-.17c-.51,0-.85,0-1,.34C794.45,245.4,794.45,245.91,795.13,245.91Zm.17-3.23a1,1,0,0,0-1,.68C794.62,243.87,795.13,243.19,795.3,242.68Zm0-79.39c0-.85.34-1.19,1.19-1.19C796.15,162.61,796,163.12,795.3,163.29Zm2,75.3c.17-.17.51-1-.17-.85,2.56-.17,1.53-4.26,3.58-3.58.34-1-.68-.51-.85-1.19a1.86,1.86,0,0,1,1.53-.34c.34-.69-.85-.86-.17-1,.51-.17.34.52,1.19.34-.17-.85-1.53-.51-1.19-1.53.34.34.85.85,1.36.17,0,.34-.17.68.17.85,0-.51.69-.51.69-1-.86-.17.51-1.53-.69-1.87h1c.17-.68-.34-.68-.34-1,.85-.34,1-1.37,1.87-1.71A.75.75,0,0,1,805,227c-.34.18-.34-.17-.51-.17,0,.86-1.2,1.88.17,2-.17-.85,0-1.53,1-1.36-.17-.86.68-.86.34-1.88-1,.17-1-.68-1.7-.85-.17.51-.85.34-.68,1,.34,0,.34.17.34.51a2,2,0,0,0-1.37,2.05c-1,0-1.19.51-.34,1-.68.17-1.19-.68-1.53,0,.51,0-.34,1.53-1,1.7-.17,1.54-.34,3.58-1.54,4.6.17,0,.51,0,.51.17-.17.86-.68,0-1.36.17a10.58,10.58,0,0,0-1.53,2.73c.85,0,.68-1,1.36-1C797,238.25,796.66,238.25,797.34,238.59ZM796.83,164c-.34-.17-.68,0-.68.34A.38.38,0,0,0,796.83,164Zm.34,77c.17.69.85-.17.68-.68-.34,0-.34.34-.68.34Zm.68-4.25v.34h-.34v-.34Zm1-81.78c.18.85-.34,1-1.19,1C798,155.62,798,154.77,798.87,154.94Zm-.68,85h.34c0-.17,0-.17.17-.17v-.51h-.34c0,.17,0,.34-.17.34Zm1-79v.34h-.52v-.34Zm.34-6c-.86-.34,0-1.19.68-1C800.24,154.43,799.56,154.43,799.56,154.94Zm3.4,1c-1.87.34-2.72,1.88-3.74,3.07C800.58,158.86,801.77,156.81,803,156Zm-2.72,79.22c0-.17.17-.17.17-.51h-.68v.51Zm.17,3.58a.38.38,0,0,0,.51.51C801.09,238.93,800.75,238.76,800.41,238.76Zm1.53-3.92c-.85.17-1.53.34-1.36,1.36C801.43,236.2,801.43,235.18,801.94,234.84Zm-.51-81.77v.34h-.51v-.34ZM803,156.3c0,1.2-1.87.86-1.7,2.22.17,0,.51,0,.51.34-.17.17-.17.17-.17.51h-.68v.51c.17,0,.17.17.51.17,0-.17.17-.34.17-.68.51-.17,1.19-.17,1.19-.85,0-.17-.51,0-.51-.34a.37.37,0,0,1,.34-.34c.34,0,.17.51.86.34.17-.51-.86-.68-.18-1,.35,0,.18.51.69.34.34-.34,1-.34,1.36-.69-.85-.17-.85-.85-1.53-.85v-.51h-.52c-.17.51.18.51.52.51C803.82,156.3,803.48,156.3,803,156.3Zm-.68-3.92v.52c-.34,0-.34,0-.34.17h-.34v-.34c.17,0,.17-.17.17-.35Zm-.34,1.88v.51h-.34v-.51Zm1,78.2c0,.68-1.53,1.53-.51,2C802.45,233.65,804,233,803,232.46ZM802.62,152c0-.34.17-.51.68-.34A.88.88,0,0,1,802.62,152Zm.34,77.69a.88.88,0,0,0-.34-.68A.88.88,0,0,0,803,229.73Zm2-79.56a2,2,0,0,1-1.71,1.53C803.3,150.68,804.5,150.68,805,150.17Zm-1,85h-.51c0,.34-.18.68.17.68C803.65,235.52,804.16,235.69,804,235.18Zm1.53-78.88h.34c.17-.34.17-.51-.17-.51.17-.51.68-.51.85-.85.34.17.51.51,1.19.51,0-.68,1.2-1.36,2-1.7-1-.51-.34-1,0-1.71-2.22.69-2.9,2.9-5.11,3.41,0-.51.34-.51-.17-.68-.17.51-.51-.34-.85,0-.17.85,1,.34,1,1.19.51,0,.51-.34,1-.17C805.52,156,805.52,156,805.52,156.3Zm-1,75.13c-.51-.34-1,.69-.51.69C804.16,231.77,804.67,231.94,804.5,231.43Zm0,1.71c0-.17-.17-.51-.51-.34a.68.68,0,0,0,.34.68C804.33,233.31,804.33,233.14,804.5,233.14Zm.85-79.73c0,.68-.68.51-.68,1C805.35,154.77,806.2,153.58,805.35,153.41Zm.51,68.82c.68-.17.85.17.85.69-.51,0-.68-.35-1.19-.17,0,.68-.51,1.19-.85,1.87.51.34,1.36.51,2,.85.34-.51-.17-.85.34-1.19-.68,0-.68.51-1.36.51,0-.17-.17-.17-.17-.34a1.8,1.8,0,0,1,1.19-1c.34,0,.34.51.85.51-.17-.85-.17-.68.34-1.19-.34-.18-.68-.35-.51-.86.17-.34,1.54-1.36.51-1.7,0,.85-.51-.17-1,.17C807.05,221.38,806.2,221.21,805.86,222.23Zm-1.19,7.84c0,.51.17.68.68.68C805.35,230.24,804.84,230.41,804.67,230.07Zm.85,1.53a1,1,0,0,0-.85.52C805.18,232.29,805.52,232.12,805.52,231.6Zm0-80.24v.51H805v-.51ZM805,229.73c.51,0,.34.51.85.34,0-1.36,1.19-1.36,1.53-2.38-.51-.17-.51.34-1,.17C806.37,228.54,805.52,229.05,805,229.73Zm.85-79c-.51,0-.34-.51-.51-.51.85-1.53,2.72-2.21,4.09-3.41C810.12,148.13,805.69,149,805.86,150.68Zm.68,3.41c.17-.68.85-.85,1-1.71-.85,0-.85.52-1.53.52A1.54,1.54,0,0,0,806.54,154.09Zm-.51,79c0-.51.85-.34,1-.17C806.88,233.65,806.54,233.31,806,233.14Zm.68-14.48c-.34.34-.34.85.34.68A.88.88,0,0,0,806.71,218.66Zm.34,13.11v-.34h-.34v.34Zm.85-14.48c-.34-.17-.51.17-.85.17C807.05,218.32,808.24,218.15,807.9,217.29Zm0,9h-.51c-.34.17-.34.86,0,1.2C808.07,227.52,807.9,226.83,807.9,226.32Zm-.51,4.43h.34c0-.17,0-.17.17-.17v-.51h-.34c0,.17,0,.34-.17.34Zm2.22-12.6c-.51,0-.51-.34-.85-.34,0,1-1,.85-1.2,1.7C808.42,219.68,809.1,218.83,809.61,218.15Zm-.85-2.39c-.86,0-.69.85-1,1.36C808.42,217,808.59,216.44,808.76,215.76Zm-.69-61.67c-.34,0-.17-1,.35-.68C808.24,153.75,808.07,153.75,808.07,154.09Zm0,67.29c0,.51,0,1,.52,1C808.76,222.23,808.76,221.38,808.07,221.38Zm.35,3.92c-.35.17-.35.68.17.68C808.76,225.81,808.76,225.3,808.42,225.3Zm.17-73.6c1,0,1.19-.68,1.53-1,.85.17.68-.51,1.36-.51,0,.17.17.17.17.51-.85-.17-.51.68-1.19.51-.17.51-.17,1,.17,1.19.68.18,2-.68,1-1.19v-.51c.68-.17.34.85,1,1,.52-1,1.71-1.19,2.22-2,.34.34.51-.17,1.19,0-.17-1,.85-.68.85-1.36-1.19,0-1.53.68-2,1.36-.51-.17-.34-.68-.68-.85-.68.17-1.54,1.36-2.39,1,.34-.85,1.54-.68,1.88-1.7a7.69,7.69,0,0,0-3.58,2.55A1.37,1.37,0,0,0,808.59,151.7Zm1.53,72.24c-.34-1.37,1-2.56,1.7-3.58-.17-.34-.34-.51-.68-.51-.51,1.87-3.07,3.75-2.21,5.45C809.44,224.79,809.44,223.94,810.12,223.94Zm-.51-4.43h-.68c0,.51,0,.85-.17,1C809.61,220.7,809.44,219.85,809.61,219.51Zm-.17-4.77c-.17-.17-.17-.51-.51-.34a1,1,0,0,0,.17.68C809.1,214.91,809.1,214.74,809.44,214.74Zm.34,2.89c-.17-.68.34-.68.34-1a1.13,1.13,0,0,0-1.19.85C809.27,217.46,809.44,217.63,809.78,217.63Zm.34-4.6c-.51-.34-.85.69-.34.69C809.78,213.38,810.29,213.55,810.12,213Zm.34-60.3c-.51-.17-.85,0-.85.34C810,153.07,810.63,153.24,810.46,152.73ZM810,221.38c0-.34,0-.68-.34-.68v.51C809.78,221.21,809.78,221.38,810,221.38Zm.17-3.23a.84.84,0,0,0-.34,1C810.29,219.17,810.46,218.15,810.12,218.15Zm.68,6.13c-.51,0-1,.17-1,.68C810.29,225,810.8,224.79,810.8,224.28Zm.17-8.18c-.17-.51-.17-1.19-.85-1.36.17.51-.34.51-.17,1A1.44,1.44,0,0,0,811,216.1Zm-.51-69.17c-.85-.17-.34-1.19.34-1C811,146.59,810.46,146.59,810.46,146.93Zm.51,64.23c-.68,0-.68.51-.85,1C810.8,212.18,810.8,211.67,811,211.16Zm0,7c.17.68-.68.34-.51,1.19C810.8,219.17,812,218.15,811,218.15Zm0,8.85v.52h-.34V227Zm.17-16.86c0,.17-.85.51-.17.85C811,210.65,811.82,210.31,811.14,210.14Zm0,4.26c0-.34.34-.34.34-.68h-.68v.68ZM811,151.87c.51.17.34-.51.68-.68C811,151.19,810.63,151.53,811,151.87Zm.17,71.9c0,.17-.51.85,0,.85C811.31,224.45,811.65,223.77,811.14,223.77Zm1.71-2.05c-.52.85-.52-.51-.86-.51-.51.51-.17.68-.85,1.36C812,222.4,813.19,222.57,812.85,221.72Zm-1-6.13v-.34h-.34v.34Zm-.17.51c0,.51-.17.85-.17,1.36C812.16,217.46,812.5,216.1,811.65,216.1Zm2.05.17a1.14,1.14,0,0,0-1-.17c.52,1.36-.85,2.05-1,3.41C813.19,218.83,812.85,217.63,813.7,216.27Zm-2.05,9.2H812c.17-.34.17-.51-.17-.68,0,.17,0,.34-.17.17Zm.17-13.46c0,.17-.17.68.17.68C812.16,212.52,812.5,211.67,811.82,212Zm.17-66.27c-.68-.68.68-1.19,1.2-1.19C813.19,145.23,812.33,145.23,812,145.74Zm.51,68.32v-.51H812v.51Zm0-63.38c0-.68.52-.85,1-.85A1.08,1.08,0,0,1,812.5,150.68Zm.17,59.63V211C813.19,211.16,813.19,210,812.67,210.31Zm.52,3.75h-.34c0,.17-.18.17-.18.34C813,214.4,813.36,214.4,813.19,214.06Zm-.34,5.79h.34s0-.17.34-.17v-.34H813a.17.17,0,0,1-.17.17Zm1.19-7.16c-.85-.17-1,1-.34,1C813.7,213.38,814,213.2,814,212.69Zm.68,1a1.71,1.71,0,0,0-1,1.7C814.55,215.42,814.55,214.57,814.72,213.72Zm-1,4.94c0,.34,0,.85.51.85C814.55,219.17,814.21,218.66,813.7,218.66Zm.85-7.67c-1-.17-1,1.19-.34,1.36A2.63,2.63,0,0,1,814.55,211Zm2.55-65.08c-1-.34-2.38.85-3.06,1.88C815.06,147.1,816.25,146.59,817.1,145.91ZM814,207.07h.51c.17-.34.17-.51-.34-.68,0,.17,0,.34-.17.17Zm.51,6.31c1-.69,1-1.54,1.53-2.39-.68-.17-.51.68-1.19.51C815.06,212.52,814.55,212.69,814.55,213.38Zm2.38-2.9c-.51,0-.68-.51-1.19-.51,0,.34-.34.34-.17.68C815.91,210.65,816.76,211,816.93,210.48Zm-.68-68v.34h-.34v-.34Zm.34,67.13c0-.85,1.2-1.88.34-2.39-.17.68-1,.34-1,1.19C816.59,208.6,815.57,209.46,816.59,209.63Zm.51-61.33c2-1.2,4.6-2.05,6.31-3.75-.17-.17-.51-.34-.68-.51-.34.34-.69.51-.86.85,0-.17-.17-.17-.17-.34,0-.34,1.2-.68.51-1-.85.34-1.19,1.53-2,1.36C820,146.08,817.44,146.59,817.1,148.3Zm0,53.66v.51C817.79,202.81,817.79,201.62,817.1,202Zm.69,5.28c.68-4.09,3.4-9.54,3.57-13.12-1.19,2-1.36,6.48-3.4,8.35C819.49,203.66,815.91,205.88,817.79,207.24ZM821.36,143c-1.53.52-3.06,1.2-3.75,2.56A8.53,8.53,0,0,0,821.36,143ZM819,206.9c-.85,0-.68,1-1,1.53C818.64,208.26,818.81,207.58,819,206.9Zm.34,3.58c-.34.51-.34,1.53-1.19,1.7a3.56,3.56,0,0,0,.68-1.87C819.15,210.31,819.15,210.48,819.32,210.48Zm-.51-68v.34h-.51v-.34Zm.34,53.33c0,.34-.68,1-.17,1.36C819,196.68,820,196,819.15,195.83Zm.68-55.37c-.17-.68.51-.51.51-.85C821,140,820.17,140.46,819.83,140.46Zm.85,65.08c-.51,0-.85.17-.85.51C820.34,206.05,820.51,206.39,820.68,205.54Zm.51-2c-.34,0-.34-.17-.85-.17v1A.81.81,0,0,0,821.19,203.49Zm-.51-8.85c.34.17.51-.86.17-.69,0,.17,0,.17-.17.17Zm1.71-2.73c-.52,0-.69.34-.69.85C822.21,192.76,822.39,192.42,822.39,191.91Zm-.52-1.36c-.17.68.69.68.86.17C822.39,190.55,822.21,190.38,821.87,190.55Zm1-.51c0-.52-.17-.86-.69-.86,0,.34-.34.51-.17.86Zm-.51,11.24c-.52,0-.52-1,.34-.85A1,1,0,0,1,822.39,201.28Zm0-62.52c0-.52.51-.35.51-.69C823.41,138.24,822.9,138.93,822.39,138.76Zm.51,3.74V142h-.51v.51Zm-.51,45c.85-.17.68-.51,1.36-.51-.17-.68.34-.51.17-1.19-.85.34-.68.51-1.53.68C822.56,187,822.56,186.8,822.39,187.48Zm0,12.61a12.65,12.65,0,0,1,.85-2.73A2.08,2.08,0,0,1,822.39,200.09Zm1-12.1c-.51,0-.85.51-.51.85C823.41,188.84,823.58,188.5,823.41,188Zm.68-2.55c-.51-1.2.85-2.39,0-2.56,0,.85-.17.17-.68.17C823.92,184.07,823.07,185.09,824.09,185.44Zm-.34-105.29c2.55-1.7,4.94-4.77,9.2-4.43C837,83.22,825.11,88,823.75,80.15Zm.17,101.37c0,.51-.17,1.19.34,1.19C824.77,182.2,824.09,181.86,823.92,181.52Zm0,11.24c.34.51,1.53-1,.51-1.19,0,.17.17.34.34.51C824.43,192.25,823.92,192.25,823.92,192.76Zm.85-15.33c-.17.68-.34,1.19-.51,1.87C825.11,179.3,825.45,177.6,824.77,177.43Zm1-2.73c-.51,0-.68.17-.68.68C825.62,175.55,825.45,174.87,825.79,174.7Zm.17,12.44c-.51,0-.68.34-.68.85C825.79,188.16,826,187.65,826,187.14Zm-.17-15.84a1,1,0,0,0-.34.85C826.13,172.15,826.3,171.3,825.79,171.3Zm4.43-3.58v-.34a.17.17,0,0,0,.17-.17C830.73,167,830.73,168.06,830.22,167.72Zm.85-7.84v.34h-.51v-.34Zm1.54-21.12a1,1,0,0,0-1.37.85C831.76,139.44,832.44,139.27,832.61,138.76Zm-.68,2.89c9.2-6.3,18.05-13,26.74-19.93.17-.17.17-.51-.17-.51a284.5,284.5,0,0,1-26.92,19.42C832.1,140.63,831.76,141.31,831.93,141.65Zm.51-4.26c-.51-.17-1.2.51-.51.68C831.93,137.73,832.61,137.9,832.44,137.39Zm.51-2c-.17-.34,0-.34.17-.51-.34,0-.34-.17-.51-.17,0,.17-.17.17-.17.34C832.61,135,832.78,135.18,833,135.35Zm-.34,3.06a7.49,7.49,0,0,0,4.6-2.89,19.53,19.53,0,0,0,6.47-4.6,62.65,62.65,0,0,0-6.47,4.6A25.71,25.71,0,0,0,832.61,138.41Zm4.6-4.08c-1.2.68-3.58,1.53-3.75,2.55C834.65,136,836.19,135.52,837.21,134.33Zm1.87-3.07c-1.36,1.36-3.58,2-4.77,3.58C836,134,838.91,132.28,839.08,131.26Zm.17,1.53h-.68c.17.51-.34.51-.34.85C838.91,133.64,839.08,133.47,839.25,132.79Zm1.19-1c-.68,0-.51.51-.85.85C840.1,132.62,840.61,132.45,840.44,131.77Zm.34-1.36c-.51-.17-.85,0-.68.51C840.61,131.09,840.61,130.58,840.78,130.41Zm2.39-1.71c-.68.52-2.22,1-1.87,1.71C841.81,129.73,842.83,129.73,843.17,128.7Zm0,1.54c-.68.17-1.53.17-1.7,1C842.15,131.09,843,130.92,843.17,130.24Zm1.7-4.09c-.17.68-.85.85-1.53,1.19C843.51,126.66,844,125.47,844.87,126.15Zm-.34,2.55c-.17.69-1,.52-1,1.2C844.19,130.07,845.38,129,844.53,128.7Zm.17,1.71c-.51-.17-.85,0-.85.51C844.36,131.09,844.7,130.92,844.7,130.41Zm0-2.73c-.34,0-.68,0-.51.51A.45.45,0,0,0,844.7,127.68Zm2-.34c-.68.34-1.54.68-1.88,1.36C845.9,128.53,846.58,128.19,846.75,127.34Zm1.19.51c-.85,0-1.87,1.37-2.56,2.05C846.24,130.07,847.26,128.7,847.94,127.85Zm-.17-3.58c0,.18-.34.35,0,.52C847.77,124.62,848.11,124.45,847.77,124.27Zm1.53-1c-.68,0-.85.17-.85.85C848.79,123.93,849.3,123.93,849.3,123.25Zm0,3.92c.34-.17.85-.17.68-.68,1-.68,2.39-1,2.73-2.22-.85.69-2.39.86-2.73,2.22C849.64,126.49,849.13,126.49,849.3,127.17Zm1.2-2.38c-.52,0-.86.17-.86.68C850.15,125.47,850.32,125.13,850.5,124.79Zm1.36-1.2h-.34c0,.17-.17.34-.17.51C851.52,123.93,852,124.1,851.86,123.59Zm.51-1.53h.34c0-.17,0-.34.17-.34v-.34h-.34c0,.17,0,.17-.17.17Zm2.21.68a1.9,1.9,0,0,0-1.19,1.36C854.24,124.1,854.41,123.42,854.58,122.74Zm0-2.38c-.51,0-.85,0-.85.34C854.24,120.87,854.41,120.7,854.58,120.36Zm1-.86c-.51,0-.86,0-.86.52A.79.79,0,0,0,855.61,119.5Zm-.17,1.71v-.51h-.52v.51Zm0,1a1.08,1.08,0,0,0,1-.85c.34,0,.51,0,.51-.34-.34-.17-.51,0-.51.34C855.78,121.38,855.61,121.89,855.44,122.23Zm3.06-2v-.52H858v.52Zm.34-1c-.51,1.2,1-1.36,0-.17Zm1-4.08c-.52,0-1,.17-1,.85C859.18,115.59,860,115.93,859.87,115.08Zm.17,5.11c-.69-.17-1,.17-1,.85C859.53,120.87,860,120.7,860,120.19Zm-.35-1.54H860a.17.17,0,0,1,.17-.17v-.34h-.34a.17.17,0,0,1-.18.17Zm1.88.68c0-.51-.17-.68-.68-.68,0,.34-.34.51-.17.85C861.06,119.5,861.06,119.33,861.57,119.33Zm.68-3.91c-.51,0-.51.34-.68.68C862.08,116.1,862.08,115.76,862.25,115.42Z"/><path class="cls-3" d="M907.91,5.19c-.17.17-.17.34,0,.34,0,.85.68,1,1.19,1.36-.17,1.2-.85,1.71-1.87,2.39.51.51,1.19-.34,1.53-.68a2.48,2.48,0,0,1,1,1.53h-.85c.34,1.19-.34,2-.85,2.9-.51-.68-.51,0-1.37,0,0,.51.52.51.52,1,.34-.51.51-.34,1-.17-.34,1.53-.34,2.21-1.36,3.07.34,0,.51.34,1,.85-.17.51-.85.51-.85,1.19-.35-.34-1-.68-1.2.17a1.69,1.69,0,0,1,1.2.17,6.74,6.74,0,0,0-.17,2.73c1,.17-.35-.86.68-.69,0,.86-.34,1.2-.34,1.88-.69.34,0-.85-.69-.68-.51.34.52.68.35,1.36-.69,0-.86.68-1.88.51,0,.34.34.51.51.17.34.17-.17,1.36-.34,1.71.85.51.51-.35,1.36-.35.52,1.2-1.7,1.54-1.7,3.07,1,0,.51-.51.85-.85.85,0-.17,1,0,1.53-.68,0-.68-.51-1.53-.17.17.68.68.51.34,1.19.68.35.17-.68,1-.51.17,1.2-.85,1.2-1.53,1.37.34.51.68.34,1.19.17,0,.68-.17,1.19-1.19,1,0-.51-.51-.85-.17-1.53-.85-.35-.34,1-1,.85,0-2.39.85-2.9,1.19-5.45-.34,0-.34.34-.85.34.17,2.55-1.37,4.6-1.71,7.32,1.37,0,.51-1.36,1.2-2,.68,0,.68.85,1.36,1-.34,1.19-.85,2.21-2.22,2.39-.51-.52.34-.52.34-1,.35-.17,0-.17,0,0-.51,0-.34.34-.68,0-1.7,2.05-.51,5.11-2.72,7a2,2,0,0,1,.17,1.7c.68,0,.51-.68,1.19-.51-.34.68.17,1.19-.17,1.87.68-.17.85-.68,1.19-1.19,0-.68-.34.17-.68,0,.34-.85-.17-1-.85-1.19,1.36-1.87,1.19-4.43,2-6.13.68.51.51,0,1.37,0,0,.34-.51,1.19.51,1,0,.17.17.17.34.34a1.33,1.33,0,0,1-.68.68c-1,0,0-.68-.68-.85-.69.17.17.85.17,1.19.17,0,.34-.34.85-.17,0,1.7-.68,2.73-1.54,3.07.17.34.34-.17.86.17-.52,2.21-1.37,3.75-1.88,6.3-.51,0-1,0-1,.68.17.68.51-.68.68,0,.51.68-1,1-.17,2-1.36.51-1,2.89-2,3.57-1.2,0-.68-1.19-.68-2-1.2.34-.35,1.53-1,1.87-1,0-.17-.68-.85-1.36,1.36-.34,1-1.53,1.53-2.21,1.88.85,2-2.39,2.22-3.92-.68,0-.68.68-1,1.19-.34-.17-1-.17-.85-1-.69.34-.52,1.19-1.2,1.36.34.68.51,1.88-.51,1.88,0,.34.68.68.68.17a15.46,15.46,0,0,0-2.21,5.62c.51,0,.51-.85,1-.17.34-.34-.34-.85.34-1,.51,0,.17.85.17,1.19-.17.17.17.17,0,0,.85,0,.51-.85.85-1.19.69-.17.86.17,1.54.17-.17,2.55-1.88,4.08-2.56,6.47,0,.34.34.34.68.17-.51,1.36-2.21,1.36-1,2.73-.51-.34-.68.68-.17.68a1.27,1.27,0,0,1-.85.17c.17.85,0,1.36-.85,1.36,0,.34.17.51.68.51-.34.17-.51.85-.85,1,0,.34.51,0,.51.34-.17,1-1,0-.34,1.2-.34.17-.34.34-.86.17,0,.51.52.34.52.85-1.71,1.36-1,3.75-2.73,4.26-.85,0,.17-.85-.68-1,0,.68-.34,1.87.51,2.38.34-.17,0-1,.85-.85-2.89,5.45-4.6,12.44-8.86,17.21-2.55,7.15-7.15,13.63-10.56,20.78a2,2,0,0,0-1.36,2.9c-.17.17-.51.17-1,.17,0,.51.69.17.69.68-.34.51-.86.68-1,1.36.34.34,1.2-.68.86.85,2.21-4.26,6-6.81,7.66-11.41,1.2-.17,2.39-2.22,3.07-3.58,1.87-.68,2.38-2.38,5.45-1.87-.51.51.17.85.51,1,2.22-.51,3.24.68,4.77.34a17.79,17.79,0,0,1,1,3.58c-.17.34-1,0-1,.51,0,.34,1,0,1.19.34,0,2.73-.51,4.94-.34,8.18-.51.51-.85-.34-1.36.17a1.08,1.08,0,0,0,1,.85c-.51,1.36-1.53,3.24-1.53,4.94.17.51.34-.17.85,0-.51,4.09.17,7.84-.34,11.41,0,.69.85.52.68,1.37,1.88,0,2.22-1.54,3.75-2,.51,0,.51.68,1,.68-1.36,1.2-.51,3.41-.85,4.77-4.77,2.05-8.69-1.7-11.07-4.77.34-1-.51-1-.68-1.7.51-.34.34.17.85,0,0-.34-.34-.51-.17-1.19-.34,0-.17.51-.68.51.17-4.09.51-7.84-.69-10.9.86-2,0-4.77.51-8.35-8.17,9.54-12.6,22.83-19.59,33.73-1.7.17-2.38.68-3.92.51.17-.85-.34-.34-.85-.34-.17-.51-.51-.68-.34-1.36-.51,0-.68.34-1,0-.17-1.71-.17-2.39-1.36-3.07,0-5.28,3.06-8.86,3.06-13.8,3.07-6.64,3.07-15.5,5.46-21.63-.17.85,0,.68,0,1.7a1.44,1.44,0,0,1,1-.34c.17-1.36.34-2.9,1.19-3.58a1.53,1.53,0,0,1-.17-1.7c.68.51.34.34,1.19,0a12.64,12.64,0,0,0-.51,2.89c.34,0,.34-.34,1-.17-1-1,0-2.55.17-3.74a1.26,1.26,0,0,0-.85-.35c.17.52.51.52.17,1.2-.17-.17-.68-.17-1-.34,1-2.22.34-4.09,1.87-4.94,0-.69-.68-.69-.34-1.54,0-.34.68-.17,1-.51.34.34-.35,1.53-.35,2.39a11.87,11.87,0,0,0,1.37-3.92c-.68,0-.51.68-.68,1-.69,0-.86-.34-1.2-.51,2.05-5.11,2.73-12.61,4.6-17.21,0-.34-.51-.34-.34-.85.85-.17.34-1.7,1.37-1.53-.69-3.58,2.21-7.33,1.53-10.74.34.69.68.34,1-.17,0-.51-.85-.17-.68-.85,1.87-1.7,1.53-5.62,3.24-8-.51-1.36,1.19-2,.34-3.06,2.55-4.43,1.7-8.52,4.6-12.61.17-.68-.68-.51-.34-1.19,1-.85,1.87-3.24,1.53-3.75,2.21-4.94,4.6-11.07,7.5-16.69a2.28,2.28,0,0,0-.52-.69C887.12,27,883.2,41.14,878.6,51.53,884.06,34,889.51,14.73,901.43.08c3.75-.51,6,1.53,7.67,3.92-.17.68-.34.34-.85.68.17.17.34.51.51.51,0,.34-.51.34-.85.34ZM862.59,128.87v-.34h-.51v.34Zm1.19-4.42c-.85,0-1.7,2.21-.51,2.21C862.93,125.47,863.61,125.47,863.78,124.45Zm0-.35v-.51h-.51v.51Zm.85-3.57c-.34,0-.51.17-.68.51C864.29,121,864.46,120.87,864.63,120.53Zm-.68.85c.17.34-.17,1,.17,1C864.29,122.23,864.63,121.21,864,121.38Zm2.22-16.7c-.85-.85,0-.34-1.19,0-.52-.51.51-1,.68-1.53Q866.17,103.4,866.17,104.68Zm-.51-2.55c.17-1.54,0-3.41,1.19-3.92-.17-1-.68-2.22.85-2.39C866.51,97.87,867.36,100.42,865.66,102.13Zm3.06-10c-.68.68,0,2.38-1,2.55.17-.85-.51-.85-.51-1.53.51-.17.51-.85.85-1.19C868.21,92.08,868.38,92.08,868.72,92.08Zm.17,7c0,.34-.17.85.17.85C869.23,99.74,869.57,98.89,868.89,99.06Zm.86-9.37c-.52-.17-1,0-.86-.68C869.4,89,869.75,89.18,869.75,89.69Zm-.52,7.5c-.34.68-.17.85-.34,1.36C869.57,98.55,870.09,97.36,869.23,97.19Zm-.17-10.4c.51-.34.34-1.53.69-2C870.26,84.75,870.09,87.14,869.06,86.79Zm.69,1.2c-.86.17-.86-.85,0-.68Zm-.35,2.72c-.51,0,0-.68,0-.85C869.92,89.86,869.57,90.54,869.4,90.71Zm.52-6.3c-.17-.34-.35-1.7.51-1.7C870.43,83.73,870.94,84.24,869.92,84.41Zm0,14.82c.51.34.51-.68.17-.51,0,.17,0,.17-.17.17Zm.51-17c-.34-.51.17-1.7.68-1.7C871.62,81.17,870.94,81.85,870.43,82.19Zm.85,6.82c.17.68-.51,1.19,0,1.53C871.28,90.2,872.13,89,871.28,89Zm-.17-9.88a6.46,6.46,0,0,1,.34-2C872.3,77.25,872,79.3,871.11,79.13Zm.68,13.8c-.34,0-.68,0-.68.17.34.17.17.51.68.51Zm1.36-7c-.68-.51-1.87,1.2-1.19,1.88C872.13,87,872.3,86.28,873.15,85.94Zm-.85-9.88v.51H872a.62.62,0,0,1-.17-.51Zm1.7-7c-1,2.38-.17,4.94-2,6.47a34.55,34.55,0,0,1,1.53-6.64C873.83,68.74,874,68.91,874,69.08Zm-1.19,15.67c-.51-.17-1,.51-.51.68C872.3,85.09,872.64,85.09,872.81,84.75Zm-.51-.34c.68,0,1-1.53.51-1.53-.17.17-.17.34-.51.34C872.3,83.73,872.81,83.9,872.3,84.41Zm2.05-5.62c-1,0,.68-1.37-.17-2.05-.86,1.88-.86,3.58-1.2,5.63C874,81.85,873.49,79.64,874.35,78.79Zm-.52,5.62c-.68,0-.51.51-.85.85A1.09,1.09,0,0,0,873.83,84.41Zm9.54-4.6c0,.51-1,1-.34,1.36,0-.34.17-.17.34-.34-.34.85-1.53.68-1.36,1.88.17,0,.51,0,.51.17,0,.34-.34.17-.51.34-.17.34.34.17.34.51-.17.34,0,1.19-.68,1,.34-.34,0-1-.34-.51.17.34-.68,1.36-1.19,1.7.34.68-.34,1.37.34,1.71a3.2,3.2,0,0,0-1.88,2.72c-1.36.85-2.38,3.41-2.38,5.11a1.46,1.46,0,0,0-.85,2c-.51-.17-.51.51-1,.51.17,1.53-1.2,2.21-1.2,3.75,1.37-1.54,3.24-3.58,3.75-5.8h.51c.17-.34-.17-.51-.17-.85,1.88-1.53,2.9-4.26,4.43-6.3-.51-.17-.51,1.19-.68.51a4,4,0,0,1,.34-1.36c.17.17.17.34.34.34.17-.34,1.36-1.19.51-1.37a3.72,3.72,0,0,1,.85-.51c.17-.68-.34-.68-.51-1,.51-.34.34,0,.85,0a2.36,2.36,0,0,0,0-1.53c1.37,0,.69-1,1.71-1.19-.17-1.88,1.53-3.58,2-5.63-.34-.17-.68.34-.68,0s-.17-.85.17-.85c.51,0,.34.51.85.34.34-.85-.85-.34-.68-1.19.85,0,1.37-.17,1.54-.68-.69.17-1.2.17-1-.51,0-.17.17-.34.34-.51.34.17.17.68.69.68a1,1,0,0,1,.51-1c.17-.69-.51-.35-.34-1,.85.51,1.7-1,.85-1.7.85-.34.51-.34.34-1.19,1.19-.17,1-1.71,1.87-2.22a1.23,1.23,0,0,1-.34-1.36,7.39,7.39,0,0,1,1.19-1c-.34-.17-.68-.34-.68-.85.34,0,.51.17.85.17.17-1.88,1.54-3.58,1.2-5.8,1.7.17.85-1.53,1.53-2.21-.68,0-.85.68-1.53.68-.17-.34.68-.68,0-.85-1.2.68.51,3.58-1.2,3.07.17,1-1,1.36,0,1.87-.17.85-.85,1.19-1.36,1.87.34,0,.34.34.34.68-.34.35-.34,0-.85,0,1,1.2-1.19,1.88-.51,3.41-.68.34-1-.34-1.36.51.34.51.51-.17.68.17-.51,1.37-1,3.07-2,3.75.17,1.19-.34,1.36-.34,2.22-.68-.52-.68,1-1.53,1-.17.68.51.51.51,1-.68,1.7-2.21,2.39-2.56,4.26Zm-9.54-11.76c.17-.68.17-1.53,1-1.7C874.86,67.37,874.52,67.88,873.83,68.05ZM875,90.37h-.51c0,.17-.17.17-.17.34C874.69,90.71,875,90.71,875,90.37Zm.34-17.89c-.34,1.37-1.19,3.24-.85,4.09A6,6,0,0,0,875.37,72.48ZM875,65.84c-.51,0-.51-.34-.51-.68C874.86,65.33,875,65.5,875,65.84ZM875,64c-.17-.69.34-.69.34-1.2C876.39,62.77,875.54,64,875,64Zm.34,27.77c0-.18.17-.18.17-.35-.17,0-.17-.17-.34-.34,0,.34-.17.34-.17.51C875.2,91.56,875.2,91.74,875.37,91.74Zm-.17-15.17c.17.68-.51,1.19.17,1.54C875.2,77.6,876.22,76.57,875.2,76.57Zm.34-1.36c.34.51-.51.85,0,1C875.88,75.89,876.39,75.38,875.54,75.21Zm22-62.86a.37.37,0,0,1,.34.34c-.17.34-.69.51-1,.68a2.34,2.34,0,0,1-1.36,2.89c.51,2.22-2,2.9-1,5.28-2.22,3.58-2.56,9.55-4.26,14,.51.35.51-1,.68-.34.85,2.22-1.53,1.54-1.7,3.07a1,1,0,0,1,.51,1.19c-.68-.17-1,0-1.19.34-.17.86,1,.17.68,1-.17.85-1,0-1.37.51,0,.85-.51,1.19-.51,2,1-.17.34-1.7,1.37-1.7-1.54,8.18-5.29,14.48-6,22.15-1.87,1.7-1.87,4.08-2,7.66-.34.34-.85.51-1.19.85,1.19,1.2-.86,4.94-1,5.8,0-.35.35-.17.51-.35a22.28,22.28,0,0,0-1.53,6.65c-1.53.85-.34,3.92-1.87,4.09.34.34,0,1.53.51,1.87,3.07-6.3,5.11-12.61,8.69-18.06C888,64,891.38,54.77,895.3,46.59c-.17-1.88.85-4.6,1.53-6.65-.51-.17-.68.86-.85.35.17-1,.51-.86,1-.52v-.85c.17-.51-.51.51-.51-.17.34-.17.17-.85.51-1,0,.34.17.34.52.51a7.44,7.44,0,0,1,1-3.58c-.51.17-.85.51-1-.17,2.72-10.22,6.13-20.1,6.13-31.51-2.9,2.38-4.26,6.13-6.13,9.37C896.66,12.18,897.52,13,897.52,12.35ZM876.9,59c-.34.85,0,2.21-1.36,1.87.34-.68.85-1,.68-1.87Zm-1.36,12.26c.17.34,0,.68.34.85C875.88,72,876.39,71.12,875.54,71.29ZM876.05,97c-.51-.34,0-.86,0-1.2C876.39,96,876.22,96.85,876.05,97Zm.34-28.62a8.45,8.45,0,0,0-.51,2.72C876.56,71,876.56,68.91,876.39,68.4Zm1-1.54c-.51-.17-1,.85-.51,1A5.66,5.66,0,0,1,877.41,66.86Zm.68-2.89c0-.35,0-.69-.17-.69-.17.52-1.7.52-.85,1.2C877.07,64,877.75,64.14,878.09,64Zm-1-6.14c-.68-1.53,1.53-4.43,1.36-6C879.46,53.74,877.41,56,877.07,57.83Zm.17,34.93h.34c.34.34,0,.34,0,.85h-.34C877.24,93.1,876.9,93.1,877.24,92.76Zm.68-27.6v-.34h-.51v.34Zm.51-3.41c-.17.34-.51.51-.51,1.19C878.43,63.11,878.78,61.92,878.43,61.75Zm-.34,30c0-.18.17-.35.51-.35C878.6,91.56,878.43,91.74,878.09,91.74Zm.85-31.35c0-.17.18-.17.18-.51h-.69v.51Zm.18-1.19c.51-.17.68-.86.51-1.54-.69-.17-.17,1.19-.51,1.54C878.78,59.37,879.12,59.54,879.12,59.2Zm.51,30.66h-.34v-.34a.17.17,0,0,0,.17-.17C880,89.35,880,89.52,879.63,89.86Zm.85-30.49a1.09,1.09,0,0,0-.85.85C880.31,60.22,880.14,59.71,880.48,59.37ZM879.63,89c.17-.34.68-.51,1.36-.51C880.82,88.84,880.48,89.18,879.63,89Zm.85-33.39c.34-.51-.68-.68-.51-.34a.59.59,0,0,1,.17.34Zm.68-1.88v-.51h-.51v.51Zm.51-3.06c0,.51-.51.85-.51,1.36C881.84,52.21,882.18,50.85,881.67,50.68Zm.34,12.6c-.17-.34,0-.68-.51-.51v.34C881.67,63.11,881.84,63.28,882,63.28Zm.34-14.82c-.68.51-.34.85-.68,1.71C882.69,50,882.52,48.8,882.35,48.46Zm.85,74.62c-.68,1,.86,2.73-.51,3.41-.17.68.85.34.68,1-.17,0-.17.34-.17.68-1.36-1.19-.51-3.4-.68-5.11Zm0-2.38c.34.51-.17,1.36-.68,1.53V120.7Zm.17-74.28c-.34,0-.34-.34-.68-.34.17.34-.17,1.19.34,1A1.29,1.29,0,0,1,883.37,46.42Zm.35,40.37c-.35,0-1,.69-.52.86C883.2,87.31,883.72,87.31,883.72,86.79Zm.34-6.64c-.34,0,0,.85-.69.68-.17-.34.35-.34.17-1C883.72,80,884.06,79.81,884.06,80.15Zm.17-36.63c-.86-.17-1.2,1.37-.51,1.54A7.85,7.85,0,0,1,884.23,43.52Zm1-2.89c-.51-.17-1.19.68-.68,1C884.74,41.14,885.25,41.31,885.25,40.63Zm-.51,38a.17.17,0,0,0-.17.17c-.17,0-.17-.34-.17-.51C884.74,78.11,884.74,78.45,884.74,78.62Zm-.17,5.28c0,.34-.34.51,0,.68C884.57,84.41,884.91,84.07,884.57,83.9Zm0-2.56v-.51c.17.17.17,0,.17-.17C885.25,80.66,885.08,81.68,884.57,81.34Zm1.7-43.44c-.34-.17-1.19-.17-1.19.51C885.59,37.9,885.93,38.58,886.27,37.9Zm-1.19,42.59v-.68C885.59,79.64,885.59,80.83,885.08,80.49Zm.51,32.88c-.17.85-1,3.24,0,3.58C885.59,116.1,885.93,114.05,885.59,113.37Zm0,11.25c0,.34-.34.34-.17.85C886.1,125.64,886.27,124.62,885.59,124.62Zm.17-2.9c0,.51-.51.34-.34.85C885.93,122.74,886.27,121.89,885.76,121.72Zm0-72.58V48.8h-.34v.34Zm-.17,77c0,.34-.17,1,.51.68C886.1,126.49,885.93,126.15,885.59,126.15Zm0-5.45c0,.34,0,.85.51.68C886.1,121,885.93,120.87,885.59,120.7Zm0,2.55c0,.51,0,1,.68,1C886.1,123.93,886.27,123.08,885.59,123.25Zm.85-6.64c-.68,0-.51,1-.68,1.7C886.44,118.31,886.44,117.46,886.44,116.61Zm-.68,2v1C886.44,120,886.44,118.48,885.76,118.65Zm.68-4.09c-.17.52-.51.69-.34,1.37C886.61,115.93,887,114.9,886.44,114.56Zm1.19-78.87c-.51.17-.17-.52-.51-.52-.17.17-.34.52-.51.69C887,35.86,887.63,36.2,887.63,35.69Zm.17,41.05c.17.34-.85.68-.17.86C887.63,77.42,888.49,77.08,887.8,76.74Zm0-43.44c0-.34.17-.68-.34-.68v.51C887.63,33.13,887.63,33.3,887.8,33.3Zm1.54,37.82v.51c-.51.17-.51-.34-.85-.34C888.49,71,889,71.12,889.34,71.12Zm-.17-41.91c-.17.17-.51,1,0,1.19C889.34,30.23,889.51,29.21,889.17,29.21Zm.17,48.21c1.19.18.17-1.87-.17-1,.17,0,.17.17.34.34C889.51,77.08,889.17,77.08,889.34,77.42Zm.51-4.25c0-.35,0-.52-.34-.52,0,.34,0,.69.17.69C889.68,73.17,889.68,73.17,889.85,73.17Zm.51-37a.88.88,0,0,0-.68.34A.88.88,0,0,0,890.36,36.2Zm0,32.2v.51h-.51V68.4Zm.51-41.91c-.51-.17-1.19.34-.51.68C890.36,26.83,891,27,890.87,26.49Zm.34,46.68c-.17,0-.34,0-.34-.18h-.34c0,.52.34.35,0,.69C891,73.85,890.87,73.34,891.21,73.17Zm-.34-3.75c0,.34-.34.51,0,.68C891,69.76,891.38,69.59,890.87,69.42Zm.34.85c.34,0,.68,1,1,.34C891.72,70.61,891.55,69.59,891.21,70.27Zm1-2.22c-.51-.17-1.19.52-.68.86C891.55,68.4,892.06,68.4,892.23,68.05Zm-.34-6.3v-.51h-.34v.51Zm1,5.28c-.51-.17-.17-.51-.17-1-.85-.17-.51.85-.85,1.36C892.57,67,892.74,67.71,892.91,67Zm.86-2.55c-.86-.17-1.2.34-1.2,1A2.27,2.27,0,0,0,893.77,64.48Zm1.7-53.67a50.75,50.75,0,0,0-2.56,5.11A8.56,8.56,0,0,0,895.47,10.81Zm-1.87,9.37c-.51,0-.69.17-.69.68C893.6,20.86,893.43,20.35,893.6,20.18Zm.85,43.27c0-.51-.51-.51-.68-.68,0,.34,0,.51-.17.68Zm0-42.59c0-.34.34-.51.34-.85C895.3,20,894.79,20.86,894.45,20.86Zm.85,39.36v-.34h-.51v.34Zm1.19-2c-.51.17-1.19.17-1.19.86C895.64,59.37,896.49,58.85,896.49,58.17Zm1.2-51.28c-.52,1.37-1.71,2.22-2.05,3.75C896.49,9.79,897.86,8.26,897.69,6.89Zm-2.05,50.43c0,.34,0,.85.17.85C896.15,58,896.15,57.49,895.64,57.32Zm.17-1c.17.68,1.36,1.19,1.71.68C896.83,57,896.49,56.47,895.81,56.3ZM898,51.53c0,.17-.17.17-.34.17,0-.17,0-.51-.17-.51-.35.51,0,.34,0,.85C898,52.38,898.71,51.7,898,51.53Zm-.34-1.7c0-.52.51-1.2-.17-1.2,0-.51.68-.51,1.19-.68C898.54,48.8,898.54,49.83,897.69,49.83Zm.85-4.77c-.68.17-.85.34-.85,1,0,.34.34.34.34.51s-.17.17-.17.51c.85,0,.85-1,.51-1.36.85-.51.51-1,1-2.05-.51,0-.68-.34-1,0C898.54,44.37,898.2,44.37,898.54,45.06Zm1.36.51c-.51-.17-.68.17-.51.85C899.9,46.42,899.9,45.91,899.9,45.57Zm1.19-2.9c0-.34.34-.34.34-.68h-.68v.68Zm.34-3.07c.51-.17.68.34,1.37.17,0-1.19-.69-1-1.37-.85ZM903,19.33V19h-.34v.34Zm0-2.56c.17.35-.51.86,0,1C903,17.46,903.82,16.6,903,16.77Zm.85,19.43c.51.17-.17.85-.34,1C903.31,36.54,903.65,36.54,903.82,36.2Zm0-22.49a1,1,0,0,0-.17,1C904.16,14.9,904.16,13.54,903.82,13.71Zm.85,11.75c-.34-.34-.85,0-1,.51C904,25.8,904.5,25.8,904.67,25.46ZM904,29.21a1.48,1.48,0,0,0,.68-1.87c0,.34-.68.17-.68.68C904.84,28.19,903.82,28.36,904,29.21Zm.17-5.28h.68v-.68h-.34c0,.17-.17.17-.34.17Zm1.7-1c-.17-.17-1.36-.68-1.19.17C905.18,22.57,905.52,23.25,905.86,22.91ZM905,6.21c-.17.17-.51,1.54.17,1.37C904.84,7.06,905.52,6.72,905,6.21Zm1.19,15.16c.34-.85-1,0-1-.51.34-.17.34-.51-.17-.51,0,.51-.34.85-.17,1.54C905.35,21.72,905.35,21.2,906.2,21.37Zm-.34-4.6c.17.52-.51.35-.34,1C906.2,18.14,906.71,16.6,905.86,16.77Zm.85-3.06H906c.17.51-.34.34-.34.68C906.2,14.39,906.37,14.05,906.71,13.71Zm-1,8.69h.51v-.51h-.34a.17.17,0,0,1-.17.17Zm.34-6.48c.51.34.68-.68.17-.68,0,.17,0,.34-.17.17Zm.68,8.52V25h-.51v-.51Zm.18-9.2c-.35.68.51,1,.68.51C907.23,15.58,907.4,15.24,906.89,15.24Zm.68,4.77c-.51-.17-.17-.34,0-.68C907.91,19.5,907.57,19.67,907.57,20Zm.34-8.69c0,.34,0,.86.17.86C908.42,12,908.25,11.66,907.91,11.32Z"/></g></g></svg>